<svg width="41" height="47" viewBox="0 0 41 47" fill="none" xmlns="http://www.w3.org/2000/svg">
<path d="M22.8572 17.4327L22.8339 31.1831C22.8551 32.3782 22.4405 33.5287 21.6913 34.354C20.942 35.1793 19.927 35.6037 18.8935 35.5236C16.6346 35.3765 14.8911 33.1741 14.9674 30.5644L14.9895 12.0847C14.9558 10.0017 15.6852 7.99892 16.9983 6.5692C18.3114 5.13948 20.0862 4.41554 21.8861 4.5755C25.7566 4.95518 28.7383 8.67688 28.7636 13.1598L28.7327 32.744C28.6555 35.441 27.6206 37.9827 25.8708 39.7726C24.121 41.5626 21.8104 42.4432 19.4811 42.208C14.1147 41.618 10.0228 36.4041 10.0437 30.1827L10.079 11.6919" stroke="white" stroke-linecap="round" stroke-linejoin="round"/>
</svg>
