<svg width="29" height="33" viewBox="0 0 29 33" fill="none" xmlns="http://www.w3.org/2000/svg">
<path fill-rule="evenodd" clip-rule="evenodd" d="M1 10.6875V26.1875C1 30.4677 2.53229 32 6.8125 32H22.3125C26.5927 32 28.125 30.4677 28.125 26.1875V10.6875C28.125 6.40729 26.5927 4.875 22.3125 4.875H6.8125C2.53229 4.875 1 6.40729 1 10.6875Z" stroke="white" stroke-linecap="round" stroke-linejoin="round"/>
<path d="M18.9062 6.8125C18.9062 7.08864 19.1301 7.3125 19.4062 7.3125C19.6824 7.3125 19.9062 7.08864 19.9062 6.8125H18.9062ZM19.9062 1C19.9062 0.723858 19.6824 0.5 19.4062 0.5C19.1301 0.5 18.9062 0.723858 18.9062 1H19.9062ZM8.25 6.8125C8.25 7.08864 8.47386 7.3125 8.75 7.3125C9.02614 7.3125 9.25 7.08864 9.25 6.8125H8.25ZM9.25 1C9.25 0.723858 9.02614 0.5 8.75 0.5C8.47386 0.5 8.25 0.723858 8.25 1H9.25ZM8.25 15.1157C8.25 15.3918 8.47386 15.6157 8.75 15.6157C9.02614 15.6157 9.25 15.3918 9.25 15.1157H8.25ZM14.5625 15.1157L15.0616 15.1454C15.0622 15.1355 15.0625 15.1256 15.0625 15.1157L14.5625 15.1157ZM13.3297 17.5984L13.6551 17.9781L13.6551 17.9781L13.3297 17.5984ZM10.6875 18.4365L10.6405 17.9387C10.3837 17.963 10.1875 18.1786 10.1875 18.4365C10.1875 18.6945 10.3837 18.9101 10.6405 18.9343L10.6875 18.4365ZM13.3297 19.2747L13.6551 18.895L13.6551 18.895L13.3297 19.2747ZM14.5625 21.7574H15.0625C15.0625 21.7475 15.0622 21.7376 15.0616 21.7277L14.5625 21.7574ZM9.25 21.7574C9.25 21.4813 9.02614 21.2574 8.75 21.2574C8.47386 21.2574 8.25 21.4813 8.25 21.7574H9.25ZM17.1434 13.9058C16.9337 14.0855 16.9094 14.4011 17.0891 14.6108C17.2688 14.8205 17.5844 14.8448 17.7941 14.6651L17.1434 13.9058ZM19.4062 12.625H19.9062C19.9062 12.4297 19.7926 12.2523 19.6152 12.1708C19.4378 12.0892 19.2291 12.1183 19.0809 12.2453L19.4062 12.625ZM18.9062 24.25C18.9062 24.5261 19.1301 24.75 19.4062 24.75C19.6824 24.75 19.9062 24.5261 19.9062 24.25H18.9062ZM19.4062 6.8125H19.9062V1H19.4062H18.9062V6.8125H19.4062ZM8.75 6.8125H9.25V1H8.75H8.25V6.8125H8.75ZM8.75 15.1157H9.25C9.25 14.4504 9.53316 13.9715 9.96119 13.6454C10.4031 13.3087 11.0173 13.125 11.6562 13.125C12.2952 13.125 12.9094 13.3087 13.3513 13.6454C13.7793 13.9715 14.0625 14.4504 14.0625 15.1157H14.5625H15.0625C15.0625 14.1205 14.6191 13.3541 13.9573 12.8499C13.3094 12.3564 12.4704 12.125 11.6562 12.125C10.8421 12.125 10.0031 12.3564 9.35521 12.8499C8.69341 13.3541 8.25 14.1205 8.25 15.1157H8.75ZM14.5625 15.1157L14.0634 15.0859C14.0142 15.9111 13.632 16.6808 13.0044 17.2187L13.3297 17.5984L13.6551 17.9781C14.4887 17.2637 14.9963 16.2413 15.0616 15.1454L14.5625 15.1157ZM13.3297 17.5984L13.0044 17.2187C12.3767 17.7566 11.5575 18.0165 10.7345 17.9387L10.6875 18.4365L10.6405 18.9343C11.7334 19.0376 12.8215 18.6925 13.6551 17.9781L13.3297 17.5984ZM10.6875 18.4365L10.7345 18.9343C11.5575 18.8566 12.3767 19.1164 13.0044 19.6543L13.3297 19.2747L13.6551 18.895C12.8215 18.1806 11.7334 17.8355 10.6405 17.9387L10.6875 18.4365ZM13.3297 19.2747L13.0044 19.6543C13.632 20.1922 14.0142 20.962 14.0634 21.7871L14.5625 21.7574L15.0616 21.7277C14.9963 20.6318 14.4887 19.6094 13.6551 18.895L13.3297 19.2747ZM14.5625 21.7574H14.0625C14.0625 22.4227 13.7793 22.9016 13.3513 23.2277C12.9094 23.5643 12.2952 23.7481 11.6562 23.7481C11.0173 23.7481 10.4031 23.5643 9.96119 23.2277C9.53316 22.9016 9.25 22.4227 9.25 21.7574H8.75H8.25C8.25 22.7526 8.69341 23.519 9.35521 24.0231C10.0031 24.5167 10.8421 24.7481 11.6562 24.7481C12.4704 24.7481 13.3094 24.5167 13.9573 24.0231C14.6191 23.519 15.0625 22.7526 15.0625 21.7574H14.5625ZM17.4688 14.2854L17.7941 14.6651L19.7316 13.0047L19.4062 12.625L19.0809 12.2453L17.1434 13.9058L17.4688 14.2854ZM19.4062 12.625H18.9062V24.25H19.4062H19.9062V12.625H19.4062Z" fill="white"/>
</svg>
