<svg width="29" height="33" viewBox="0 0 29 33" fill="none" xmlns="http://www.w3.org/2000/svg">
<path d="M1 16.0828C1 13.4601 1 12.1488 1.52932 10.9961C2.05864 9.84343 3.05271 8.99003 5.04084 7.28322L6.96941 5.62755C10.563 2.54252 12.3597 1 14.5 1C16.6403 1 18.437 2.54252 22.0306 5.62755L23.9592 7.28322C25.9473 8.99003 26.9414 9.84343 27.4707 10.9961C28 12.1488 28 13.4601 28 16.0828V24.2735C28 27.9158 28 29.737 26.8703 30.8685C25.7405 32 23.9223 32 20.2857 32H8.71429C5.07774 32 3.25946 32 2.12973 30.8685C1 29.737 1 27.9158 1 24.2735V16.0828Z" stroke="white"/>
<path d="M20 32V20C20 19.4477 19.5523 19 19 19H10C9.44772 19 9 19.4477 9 20V32" stroke="white" stroke-linecap="round" stroke-linejoin="round"/>
</svg>
