<svg width="22" height="22" viewBox="0 0 22 22" fill="none" xmlns="http://www.w3.org/2000/svg">
<path d="M21 2.47059V19.5294C21 19.9194 20.845 20.2935 20.5692 20.5693C20.2935 20.8451 19.9194 21 19.5294 21H2.47056C2.08053 21 1.70648 20.8451 1.43069 20.5693C1.15491 20.2935 0.999969 19.9194 0.999969 19.5294L0.999969 2.47059C0.999969 2.08056 1.15491 1.70651 1.43069 1.43073C1.70648 1.15494 2.08053 1 2.47056 1L19.5294 1C19.9194 1 20.2935 1.15494 20.5692 1.43073C20.845 1.70651 21 2.08056 21 2.47059V2.47059ZM6.88232 8.64706H3.94115L3.94115 18.0588H6.88232L6.88232 8.64706ZM7.14703 5.41176C7.14858 5.18929 7.10629 4.96869 7.02258 4.76255C6.93888 4.55642 6.81539 4.36879 6.65916 4.21039C6.50294 4.05198 6.31705 3.92589 6.1121 3.83933C5.90715 3.75277 5.68715 3.70742 5.46468 3.70588H5.41173C4.95931 3.70588 4.52541 3.88561 4.20549 4.20552C3.88558 4.52544 3.70585 4.95934 3.70585 5.41176C3.70585 5.86419 3.88558 6.29809 4.20549 6.61801C4.52541 6.93792 4.95931 7.11765 5.41173 7.11765V7.11765C5.63423 7.12312 5.85562 7.0847 6.06325 7.00458C6.27089 6.92447 6.46071 6.80422 6.62186 6.65072C6.78301 6.49722 6.91234 6.31346 7.00245 6.10996C7.09256 5.90646 7.14169 5.6872 7.14703 5.46471V5.41176ZM18.0588 12.3412C18.0588 9.51177 16.2588 8.41177 14.4706 8.41177C13.8851 8.38245 13.3021 8.50715 12.7798 8.77345C12.2576 9.03974 11.8142 9.43832 11.4941 9.92941H11.4117V8.64706H8.64703V18.0588H11.5882V13.0529C11.5457 12.5403 11.7072 12.0315 12.0376 11.6372C12.368 11.2429 12.8407 10.9949 13.3529 10.9471H13.4647C14.4 10.9471 15.0941 11.5353 15.0941 13.0176V18.0588H18.0353L18.0588 12.3412Z" stroke="black" stroke-width="0.75" stroke-linejoin="round"/>
</svg>
