<svg width="43" height="43" viewBox="0 0 43 43" fill="none" xmlns="http://www.w3.org/2000/svg">
<path d="M31.5484 11.9134C31.8156 11.8438 31.9759 11.5708 31.9063 11.3035C31.8367 11.0363 31.5636 10.8761 31.2964 10.9457L31.5484 11.9134ZM2.30919 19.0119L2.42957 19.4972L2.43521 19.4958L2.30919 19.0119ZM0.853431 20.5356L0.363154 20.4375L0.363154 20.4375L0.853431 20.5356ZM1.61061 22.5023L1.3127 22.9039C1.33949 22.9238 1.36821 22.9409 1.39841 22.9551L1.61061 22.5023ZM14.1574 28.9351C14.4075 29.0523 14.7052 28.9446 14.8224 28.6945C14.9396 28.4445 14.8319 28.1468 14.5818 28.0296L14.1574 28.9351ZM31.9029 11.532C31.9725 11.2648 31.8123 10.9917 31.5451 10.9222C31.2778 10.8526 31.0048 11.0128 30.9352 11.28L31.9029 11.532ZM23.8367 40.5192L23.3528 40.3932L23.3514 40.3988L23.8367 40.5192ZM22.313 41.975L22.4111 42.4653L22.4111 42.4653L22.313 41.975ZM20.3463 41.2178L19.8935 41.43C19.9077 41.4602 19.9248 41.4889 19.9447 41.5157L20.3463 41.2178ZM14.819 28.2466C14.7018 27.9966 14.4041 27.8889 14.1541 28.006C13.904 28.1232 13.7963 28.4209 13.9135 28.671L14.819 28.2466ZM31.7838 11.797C31.979 11.6017 31.979 11.2851 31.7838 11.0899C31.5885 10.8946 31.2719 10.8946 31.0767 11.0899L31.7838 11.797ZM14.0239 28.1427C13.8286 28.3379 13.8286 28.6545 14.0239 28.8498C14.2191 29.045 14.5357 29.045 14.731 28.8498L14.0239 28.1427ZM31.4224 11.4296L31.2964 10.9457L2.18317 18.528L2.30919 19.0119L2.43521 19.4958L31.5484 11.9134L31.4224 11.4296ZM2.30919 19.0119L2.18882 18.5266C1.26173 18.7566 0.550609 19.5009 0.363154 20.4375L0.853431 20.5356L1.34371 20.6337C1.4552 20.0767 1.87815 19.634 2.42956 19.4972L2.30919 19.0119ZM0.853431 20.5356L0.363154 20.4375C0.175699 21.3741 0.545565 22.3348 1.3127 22.9039L1.61061 22.5023L1.90851 22.1008C1.4522 21.7623 1.23221 21.1908 1.34371 20.6337L0.853431 20.5356ZM1.61061 22.5023L1.39841 22.9551L14.1574 28.9351L14.3696 28.4823L14.5818 28.0296L1.8228 22.0496L1.61061 22.5023ZM31.419 11.406L30.9352 11.28L23.3528 40.3932L23.8367 40.5192L24.3206 40.6452L31.9029 11.532L31.419 11.406ZM23.8367 40.5192L23.3514 40.3988C23.2146 40.9503 22.7719 41.3732 22.2149 41.4847L22.313 41.975L22.4111 42.4653C23.3477 42.2778 24.092 41.5667 24.322 40.6396L23.8367 40.5192ZM22.313 41.975L22.2149 41.4847C21.6578 41.5962 21.0863 41.3762 20.7478 40.9199L20.3463 41.2178L19.9447 41.5157C20.5138 42.2828 21.4745 42.6527 22.4111 42.4653L22.313 41.975ZM20.3463 41.2178L20.799 41.0056L14.819 28.2466L14.3663 28.4588L13.9135 28.671L19.8935 41.43L20.3463 41.2178ZM31.4302 11.4434L31.0767 11.0899L14.0239 28.1427L14.3774 28.4962L14.731 28.8498L31.7838 11.797L31.4302 11.4434Z" fill="white"/>
</svg>
